<svg width="162" height="51" viewBox="0 0 162 51" fill="none" xmlns="http://www.w3.org/2000/svg">
<rect x="0.5" y="0.5" width="161" height="50" rx="4.5" fill="#21201E" stroke="#F6FAF7"/>
<path fill-rule="evenodd" clip-rule="evenodd" d="M21.3122 25.0001C15.0647 25.0001 10 19.9354 10 13.6878V5H30V25.0001H21.3122ZM14.6495 15H26.8273C26.9932 16.9467 26.0574 20.8401 20.9871 20.8401C15.917 20.8401 14.6495 16.9467 14.6495 15Z" fill="#F6FAF7"/>
<path fill-rule="evenodd" clip-rule="evenodd" d="M38.7041 24.9999C44.9517 24.9999 50.0165 30.0645 50.0165 36.3122V45H30.0164V24.9999H38.7041ZM45.0447 35.2526C45.1099 36.0152 44.7699 37.1625 43.9658 38.1222C43.1711 39.0711 41.9355 39.8207 40.2229 39.8207C38.6867 39.8207 37.371 39.0734 36.4326 38.1069C35.4848 37.1301 34.9672 35.9782 34.9672 35.2283H34.3967C34.3967 36.1805 35.017 37.4673 36.0232 38.5042C37.0391 39.5508 38.494 40.3912 40.2229 40.3912C42.1211 40.3912 43.5114 39.5532 44.4031 38.4886C45.2857 37.4352 45.6932 36.1435 45.6134 35.2041L45.0447 35.2526Z" fill="#F6FAF7"/>
<path fill-rule="evenodd" clip-rule="evenodd" d="M50.0165 25.0001H41.3287C35.0812 25.0001 30.0164 19.9354 30.0164 13.6878V5H50.0165V25.0001ZM35.3088 11.6556C35.0129 12.008 34.8953 12.422 34.9172 12.68L34.4538 12.7196C34.4194 12.3173 34.5926 11.7851 34.9524 11.3564C35.32 10.9186 35.8936 10.5749 36.6709 10.5749C37.384 10.5749 37.9795 10.9207 38.3912 11.3438C38.7949 11.7589 39.0582 12.287 39.0582 12.6998H38.5931C38.5931 12.4523 38.4139 12.0343 38.0578 11.6682C37.7094 11.3102 37.2276 11.04 36.6709 11.04C36.0443 11.04 35.5969 11.3123 35.3088 11.6556ZM42.046 12.6801C42.0241 12.4218 42.1414 12.0076 42.4361 11.6552C42.7231 11.312 43.1685 11.04 43.7919 11.04C44.3457 11.04 44.8255 11.3099 45.1722 11.6678C45.5269 12.0338 45.7055 12.452 45.7055 12.6998H46.1706C46.1706 12.2873 45.9086 11.7593 45.5063 11.3442C45.0964 10.921 44.5029 10.5749 43.7919 10.5749C43.017 10.5749 42.4455 10.919 42.0791 11.3568C41.7206 11.7855 41.5483 12.3175 41.5827 12.7195L42.046 12.6801Z" fill="#4EF037"/>
<path fill-rule="evenodd" clip-rule="evenodd" d="M18.6879 24.9999H10V45H30V36.3122C30 30.0645 24.9354 24.9999 18.6879 24.9999ZM18.3847 33.1323C18.3847 34.1637 17.5485 34.9999 16.5167 34.9999C15.4853 34.9999 14.649 34.1637 14.649 33.1323C14.649 32.1005 15.4853 31.2643 16.5167 31.2643C17.5485 31.2643 18.3847 32.1005 18.3847 33.1323ZM25.4321 33.1323C25.4321 34.1637 24.5957 34.9999 23.5642 34.9999C22.5325 34.9999 21.6963 34.1637 21.6963 33.1323C21.6963 32.1005 22.5325 31.2643 23.5642 31.2643C24.5957 31.2643 25.4321 32.1005 25.4321 33.1323Z" fill="#4EF037"/>
<path d="M55.8899 22.3999V8.95545H64.7918V11.2989H58.7325V14.5025H64.201V16.8462H58.7325V22.3999H55.8899ZM79.0588 15.6777C79.0588 17.144 78.7809 18.3912 78.2251 19.4196C77.6736 20.4481 76.9209 21.2338 75.9668 21.7763C75.0171 22.3146 73.9492 22.5839 72.7631 22.5839C71.5683 22.5839 70.4961 22.3125 69.5464 21.77C68.5967 21.2272 67.8461 20.4417 67.2947 19.413C66.7432 18.3845 66.4675 17.1394 66.4675 15.6777C66.4675 14.2114 66.7432 12.9642 67.2947 11.9358C67.8461 10.9073 68.5967 10.124 69.5464 9.5854C70.4961 9.04289 71.5683 8.77148 72.7631 8.77148C73.9492 8.77148 75.0171 9.04289 75.9668 9.5854C76.9209 10.124 77.6736 10.9073 78.2251 11.9358C78.7809 12.9642 79.0588 14.2114 79.0588 15.6777ZM76.1768 15.6777C76.1768 14.7279 76.0346 13.927 75.7501 13.275C75.47 12.6229 75.074 12.1282 74.5619 11.7915C74.0499 11.4544 73.4502 11.2859 72.7631 11.2859C72.076 11.2859 71.4764 11.4544 70.9644 11.7915C70.4523 12.1282 70.0541 12.6229 69.7696 13.275C69.4895 13.927 69.3494 14.7279 69.3494 15.6777C69.3494 16.6275 69.4895 17.4284 69.7696 18.0804C70.0541 18.7325 70.4523 19.2272 70.9644 19.5639C71.4764 19.901 72.076 20.0695 72.7631 20.0695C73.4502 20.0695 74.0499 19.901 74.5619 19.5639C75.074 19.2272 75.47 18.7325 75.7501 18.0804C76.0346 17.4284 76.1768 16.6275 76.1768 15.6777ZM88.4579 12.822C88.4055 12.2925 88.1801 11.881 87.7819 11.5878C87.3834 11.2946 86.843 11.1479 86.1604 11.1479C85.6963 11.1479 85.3048 11.2135 84.9852 11.3449C84.6657 11.4719 84.4206 11.6489 84.25 11.8768C84.0836 12.1043 84.0005 12.3624 84.0005 12.6514C83.9917 12.8919 84.0421 13.1022 84.1515 13.2816C84.2653 13.4611 84.4206 13.6163 84.6176 13.7476C84.8145 13.8747 85.0421 13.986 85.3002 14.0825C85.5586 14.1742 85.8343 14.2532 86.1275 14.3188L87.3353 14.6075C87.922 14.7388 88.4603 14.914 88.9505 15.1328C89.4406 15.3515 89.8651 15.6208 90.224 15.9403C90.5828 16.2598 90.8606 16.6362 91.0576 17.0695C91.2591 17.5028 91.362 17.9993 91.3662 18.5597C91.362 19.3824 91.1517 20.0959 90.7359 20.6998C90.3247 21.2995 89.7293 21.7655 88.9505 22.098C88.1759 22.4263 87.2412 22.5906 86.1471 22.5906C85.0618 22.5906 84.1165 22.4242 83.3112 22.0916C82.5103 21.7588 81.8844 21.2665 81.4336 20.6145C80.9872 19.9579 80.7531 19.1461 80.7312 18.1788H83.4819C83.5125 18.6296 83.6416 19.006 83.8692 19.308C84.1012 19.6057 84.4097 19.8311 84.7948 19.9842C85.1843 20.1331 85.6243 20.2075 86.1144 20.2075C86.5958 20.2075 87.0137 20.1373 87.3683 19.9972C87.7272 19.8574 88.0049 19.6626 88.2019 19.413C88.3989 19.1636 88.4975 18.8771 88.4975 18.553C88.4975 18.2511 88.4076 17.9972 88.2282 17.7915C88.0533 17.5857 87.7949 17.4108 87.4536 17.2665C87.1166 17.1219 86.7029 16.9906 86.2128 16.8726L84.7489 16.5049C83.6153 16.2293 82.7203 15.7981 82.0639 15.2117C81.4074 14.625 81.0813 13.835 81.0857 12.8417C81.0813 12.0278 81.298 11.3164 81.7356 10.7083C82.1776 10.0998 82.7838 9.62504 83.5541 9.28344C84.3244 8.94214 85.1998 8.77148 86.1801 8.77148C87.178 8.77148 88.0488 8.94214 88.7928 9.28344C89.5411 9.62504 90.1232 10.0998 90.539 10.7083C90.9547 11.3164 91.1692 12.0211 91.1825 12.822H88.4579ZM100.572 12.822C100.519 12.2925 100.294 11.881 99.8957 11.5878C99.4972 11.2946 98.9568 11.1479 98.2739 11.1479C97.8101 11.1479 97.4186 11.2135 97.099 11.3449C96.7795 11.4719 96.5344 11.6489 96.3638 11.8768C96.1974 12.1043 96.1142 12.3624 96.1142 12.6514C96.1054 12.8919 96.1559 13.1022 96.2651 13.2816C96.3789 13.4611 96.5344 13.6163 96.7314 13.7476C96.9284 13.8747 97.1559 13.986 97.414 14.0825C97.6724 14.1742 97.9481 14.2532 98.2412 14.3188L99.4491 14.6075C100.035 14.7388 100.574 14.914 101.064 15.1328C101.554 15.3515 101.979 15.6208 102.338 15.9403C102.697 16.2598 102.974 16.6362 103.171 17.0695C103.373 17.5028 103.476 17.9993 103.48 18.5597C103.476 19.3824 103.265 20.0959 102.85 20.6998C102.438 21.2995 101.843 21.7655 101.064 22.098C100.289 22.4263 99.355 22.5906 98.2609 22.5906C97.1756 22.5906 96.2303 22.4242 95.4249 22.0916C94.624 21.7588 93.9983 21.2665 93.5474 20.6145C93.1008 19.9579 92.867 19.1461 92.8449 18.1788H95.5956C95.6261 18.6296 95.7553 19.006 95.9828 19.308C96.2149 19.6057 96.5235 19.8311 96.9087 19.9842C97.2981 20.1331 97.7381 20.2075 98.2282 20.2075C98.7096 20.2075 99.1275 20.1373 99.4821 19.9972C99.8409 19.8574 100.119 19.6626 100.316 19.413C100.513 19.1636 100.611 18.8771 100.611 18.553C100.611 18.2511 100.521 17.9972 100.342 17.7915C100.167 17.5857 99.9087 17.4108 99.5674 17.2665C99.2304 17.1219 98.8167 16.9906 98.3266 16.8726L96.8627 16.5049C95.729 16.2293 94.834 15.7981 94.1777 15.2117C93.5211 14.625 93.1949 13.835 93.1995 12.8417C93.1949 12.0278 93.4116 11.3164 93.8494 10.7083C94.2915 10.0998 94.8975 9.62504 95.6679 9.28344C96.4382 8.94214 97.3136 8.77148 98.2939 8.77148C99.2915 8.77148 100.163 8.94214 100.907 9.28344C101.655 9.62504 102.237 10.0998 102.653 10.7083C103.068 11.3164 103.283 12.0211 103.296 12.822H100.572ZM121.533 13.6623H118.658C118.605 13.2904 118.498 12.96 118.336 12.671C118.174 12.3778 117.966 12.1282 117.713 11.9225C117.459 11.717 117.165 11.5594 116.833 11.4499C116.505 11.3406 116.148 11.2859 115.763 11.2859C115.067 11.2859 114.461 11.4586 113.944 11.8045C113.428 12.1458 113.027 12.6447 112.743 13.3013C112.459 13.9533 112.316 14.7455 112.316 15.6777C112.316 16.6363 112.459 17.4414 112.743 18.0934C113.032 18.7458 113.434 19.2381 113.951 19.5706C114.467 19.9031 115.065 20.0695 115.743 20.0695C116.124 20.0695 116.476 20.0193 116.8 19.9186C117.128 19.8178 117.419 19.6714 117.673 19.4786C117.927 19.2816 118.137 19.0432 118.303 18.763C118.474 18.4831 118.592 18.1636 118.658 17.8048L121.533 17.8178C121.459 18.435 121.273 19.0302 120.975 19.6036C120.682 20.1724 120.286 20.6822 119.787 21.1331C119.292 21.5794 118.701 21.934 118.015 22.1966C117.332 22.4547 116.559 22.5839 115.697 22.5839C114.498 22.5839 113.426 22.3125 112.48 21.77C111.539 21.2272 110.795 20.4417 110.248 19.413C109.706 18.3845 109.434 17.1394 109.434 15.6777C109.434 14.2114 109.71 12.9642 110.262 11.9358C110.813 10.9073 111.561 10.124 112.507 9.5854C113.452 9.04289 114.515 8.77148 115.697 8.77148C116.476 8.77148 117.198 8.88102 117.864 9.09978C118.533 9.31854 119.126 9.63805 119.642 10.0583C120.159 10.4741 120.579 10.9839 120.903 11.5878C121.231 12.1918 121.441 12.8831 121.533 13.6623ZM126.316 8.95545V22.3999H123.519V8.95545H126.316ZM135.022 18.1068V12.3164H137.819V22.3999H135.134V20.5685H135.029C134.801 21.1594 134.423 21.6341 133.893 21.993C133.368 22.3518 132.727 22.5313 131.97 22.5313C131.296 22.5313 130.703 22.3782 130.191 22.072C129.679 21.7655 129.278 21.3301 128.989 20.7655C128.705 20.2009 128.561 19.5246 128.556 18.737V12.3164H131.353V18.2381C131.357 18.8332 131.517 19.3037 131.832 19.6496C132.147 19.9951 132.569 20.1682 133.099 20.1682C133.436 20.1682 133.751 20.0913 134.044 19.9382C134.338 19.7806 134.574 19.5488 134.753 19.2423C134.937 18.9361 135.027 18.5576 135.022 18.1068ZM140.108 22.3999V8.95545H142.905V14.0102H142.99C143.113 13.7388 143.29 13.4632 143.522 13.183C143.758 12.8986 144.065 12.6623 144.441 12.4741C144.822 12.2816 145.295 12.1851 145.859 12.1851C146.594 12.1851 147.273 12.3778 147.894 12.763C148.516 13.1437 149.013 13.7192 149.384 14.4895C149.757 15.2553 149.943 16.216 149.943 17.3715C149.943 18.4962 149.761 19.4459 149.398 20.2205C149.039 20.9909 148.549 21.5751 147.927 21.9733C147.31 22.3673 146.619 22.5642 145.853 22.5642C145.31 22.5642 144.848 22.4744 144.468 22.295C144.091 22.1155 143.783 21.8901 143.542 21.619C143.301 21.3431 143.117 21.0653 142.99 20.7851H142.866V22.3999H140.108ZM142.846 17.3582C142.846 17.9579 142.929 18.4807 143.095 18.9273C143.262 19.3736 143.502 19.7216 143.818 19.9712C144.133 20.2163 144.516 20.3388 144.966 20.3388C145.422 20.3388 145.807 20.2139 146.122 19.9645C146.437 19.7107 146.676 19.3606 146.837 18.914C147.004 18.4635 147.087 17.9449 147.087 17.3582C147.087 16.7763 147.006 16.2641 146.844 15.822C146.682 15.38 146.443 15.0344 146.128 14.7848C145.813 14.5355 145.426 14.4108 144.966 14.4108C144.511 14.4108 144.126 14.531 143.811 14.7718C143.5 15.0123 143.262 15.3539 143.095 15.796C142.929 16.2378 142.846 16.7588 142.846 17.3582Z" fill="#F6FAF7"/>
<path d="M62.3938 33.3608C62.3133 33.1144 62.2072 32.8937 62.0755 32.6986C61.9462 32.501 61.7913 32.3327 61.6108 32.1937C61.4327 32.0546 61.2303 31.9485 61.0035 31.8754C60.7766 31.8022 60.5278 31.7656 60.2571 31.7656C59.8132 31.7656 59.4095 31.8802 59.0461 32.1095C58.6826 32.3388 58.3936 32.6766 58.179 33.123C57.9643 33.5693 57.857 34.1169 57.857 34.7657C57.857 35.4145 57.9655 35.9621 58.1826 36.4085C58.3997 36.8548 58.6936 37.1926 59.0644 37.4219C59.4351 37.6512 59.8522 37.7658 60.3156 37.7658C60.7449 37.7658 61.123 37.6744 61.4498 37.4914C61.7791 37.3061 62.0352 37.0451 62.2181 36.7085C62.4035 36.3694 62.4962 35.9706 62.4962 35.5121L62.7743 35.5706H60.5205V34.7657H63.3743V35.5706C63.3743 36.1877 63.2426 36.7243 62.9792 37.1804C62.7182 37.6366 62.3572 37.9902 61.8962 38.2415C61.4376 38.4903 60.9108 38.6147 60.3156 38.6147C59.6522 38.6147 59.0692 38.4585 58.5668 38.1463C58.0668 37.8341 57.6765 37.3902 57.396 36.8146C57.1179 36.2389 56.9789 35.556 56.9789 34.7657C56.9789 34.173 57.0582 33.6401 57.2167 33.1669C57.3777 32.6912 57.6046 32.2864 57.8972 31.9522C58.1899 31.618 58.5363 31.3619 58.9363 31.1839C59.3363 31.0058 59.7766 30.9168 60.2571 30.9168C60.6522 30.9168 61.0205 30.9765 61.362 31.0961C61.7059 31.2131 62.012 31.3802 62.2803 31.5973C62.5511 31.8119 62.7767 32.0693 62.9572 32.3693C63.1377 32.6669 63.2621 32.9974 63.3304 33.3608H62.3938ZM64.9283 38.5122V31.0192H69.4504V31.8241H65.8357V34.3559H69.2163V35.1609H65.8357V37.7073H69.509V38.5122H64.9283ZM77.1154 33.3608H76.208C76.1544 33.0998 76.0605 32.8705 75.9263 32.673C75.7946 32.4754 75.6336 32.3095 75.4434 32.1754C75.2555 32.0388 75.047 31.9363 74.8177 31.868C74.5884 31.7997 74.3494 31.7656 74.1006 31.7656C73.6469 31.7656 73.236 31.8802 72.8676 32.1095C72.5018 32.3388 72.2103 32.6766 71.9932 33.123C71.7786 33.5693 71.6713 34.1169 71.6713 34.7657C71.6713 35.4145 71.7786 35.9621 71.9932 36.4085C72.2103 36.8548 72.5018 37.1926 72.8676 37.4219C73.236 37.6512 73.6469 37.7658 74.1006 37.7658C74.3494 37.7658 74.5884 37.7317 74.8177 37.6634C75.047 37.5951 75.2555 37.4939 75.4434 37.3597C75.6336 37.2231 75.7946 37.0561 75.9263 36.8585C76.0605 36.6585 76.1544 36.4292 76.208 36.1707H77.1154C77.0471 36.5536 76.9227 36.8963 76.7422 37.1987C76.5617 37.5012 76.3373 37.7585 76.069 37.9707C75.8007 38.1805 75.4995 38.3402 75.1653 38.45C74.8336 38.5598 74.4787 38.6147 74.1006 38.6147C73.4616 38.6147 72.8933 38.4585 72.3957 38.1463C71.8981 37.8341 71.5066 37.3902 71.2212 36.8146C70.9359 36.2389 70.7932 35.556 70.7932 34.7657C70.7932 33.9754 70.9359 33.2925 71.2212 32.7169C71.5066 32.1412 71.8981 31.6973 72.3957 31.3851C72.8933 31.0729 73.4616 30.9168 74.1006 30.9168C74.4787 30.9168 74.8336 30.9717 75.1653 31.0814C75.4995 31.1912 75.8007 31.3522 76.069 31.5644C76.3373 31.7741 76.5617 32.0302 76.7422 32.3327C76.9227 32.6327 77.0471 32.9754 77.1154 33.3608ZM79.7524 37.4878L79.6938 37.8829C79.6524 38.161 79.5889 38.4585 79.5036 38.7756C79.4207 39.0927 79.3341 39.3915 79.2438 39.672C79.1536 39.9525 79.0792 40.1757 79.0206 40.3415H78.3621C78.3938 40.1854 78.4352 39.9793 78.4865 39.7232C78.5377 39.4671 78.5889 39.1805 78.6401 38.8634C78.6938 38.5488 78.7377 38.2268 78.7718 37.8975L78.8157 37.4878H79.7524ZM84.3669 38.5122V31.0192H86.8987C87.4865 31.0192 87.967 31.1253 88.3402 31.3375C88.7158 31.5473 88.9939 31.8315 89.1744 32.19C89.3549 32.5486 89.4451 32.9486 89.4451 33.3901C89.4451 33.8315 89.3549 34.2328 89.1744 34.5938C88.9963 34.9548 88.7207 35.2426 88.3475 35.4572C87.9743 35.6694 87.4963 35.7755 86.9133 35.7755H85.0986V34.9706H86.8841C87.2865 34.9706 87.6097 34.9011 87.8536 34.7621C88.0975 34.623 88.2744 34.4352 88.3841 34.1986C88.4963 33.9596 88.5524 33.6901 88.5524 33.3901C88.5524 33.09 88.4963 32.8217 88.3841 32.5851C88.2744 32.3486 88.0963 32.1632 87.8499 32.029C87.6036 31.8924 87.2768 31.8241 86.8694 31.8241H85.2742V38.5122H84.3669ZM92.4434 38.6439C92.0873 38.6439 91.7641 38.5768 91.4739 38.4427C91.1836 38.3061 90.9531 38.1098 90.7824 37.8536C90.6116 37.5951 90.5263 37.2829 90.5263 36.917C90.5263 36.5951 90.5897 36.3341 90.7165 36.1341C90.8434 35.9316 91.0129 35.7731 91.2251 35.6584C91.4373 35.5438 91.6714 35.4584 91.9275 35.4023C92.1861 35.3438 92.4459 35.2974 92.7068 35.2633C93.0483 35.2194 93.3252 35.1865 93.5374 35.1645C93.752 35.1401 93.9081 35.0999 94.0057 35.0438C94.1057 34.9877 94.1557 34.8901 94.1557 34.7511V34.7218C94.1557 34.3608 94.0569 34.0803 93.8593 33.8803C93.6642 33.6803 93.3678 33.5803 92.9703 33.5803C92.5581 33.5803 92.2349 33.6706 92.0007 33.851C91.7666 34.0315 91.6019 34.2242 91.5068 34.4291L90.6873 34.1364C90.8336 33.7949 91.0287 33.5291 91.2726 33.3388C91.519 33.1461 91.7873 33.012 92.0776 32.9364C92.3702 32.8583 92.6581 32.8193 92.941 32.8193C93.1215 32.8193 93.3288 32.8413 93.563 32.8852C93.7996 32.9266 94.0276 33.0132 94.2471 33.1449C94.4691 33.2766 94.6533 33.4754 94.7996 33.7413C94.946 34.0072 95.0191 34.3633 95.0191 34.8096V38.5122H94.1557V37.7512H94.1118C94.0532 37.8732 93.9557 38.0037 93.8191 38.1427C93.6825 38.2817 93.5008 38.4 93.2739 38.4976C93.0471 38.5951 92.7703 38.6439 92.4434 38.6439ZM92.5751 37.8683C92.9166 37.8683 93.2044 37.8012 93.4386 37.6671C93.6752 37.5329 93.8532 37.3597 93.9727 37.1475C94.0947 36.9353 94.1557 36.7121 94.1557 36.478V35.6877C94.1191 35.7316 94.0386 35.7719 93.9142 35.8084C93.7923 35.8426 93.6508 35.8731 93.4898 35.8999C93.3313 35.9243 93.1764 35.9463 93.0251 35.9658C92.8764 35.9828 92.7556 35.9975 92.6629 36.0097C92.4385 36.0389 92.2288 36.0865 92.0336 36.1524C91.841 36.2158 91.6849 36.3121 91.5653 36.4414C91.4483 36.5682 91.3897 36.7414 91.3897 36.9609C91.3897 37.2609 91.5007 37.4878 91.7227 37.6414C91.9471 37.7927 92.2312 37.8683 92.5751 37.8683ZM97.4586 31.0192V38.5122H96.5951V31.0192H97.4586ZM100.694 38.6439C100.338 38.6439 100.014 38.5768 99.7242 38.4427C99.4339 38.3061 99.2034 38.1098 99.0327 37.8536C98.862 37.5951 98.7766 37.2829 98.7766 36.917C98.7766 36.5951 98.84 36.3341 98.9668 36.1341C99.0937 35.9316 99.2632 35.7731 99.4754 35.6584C99.6876 35.5438 99.9218 35.4584 100.178 35.4023C100.436 35.3438 100.696 35.2974 100.957 35.2633C101.299 35.2194 101.575 35.1865 101.788 35.1645C102.002 35.1401 102.158 35.0999 102.256 35.0438C102.356 34.9877 102.406 34.8901 102.406 34.7511V34.7218C102.406 34.3608 102.307 34.0803 102.11 33.8803C101.915 33.6803 101.618 33.5803 101.221 33.5803C100.808 33.5803 100.485 33.6706 100.251 33.851C100.017 34.0315 99.8522 34.2242 99.7571 34.4291L98.9376 34.1364C99.0839 33.7949 99.279 33.5291 99.523 33.3388C99.7693 33.1461 100.038 33.012 100.328 32.9364C100.621 32.8583 100.908 32.8193 101.191 32.8193C101.372 32.8193 101.579 32.8413 101.813 32.8852C102.05 32.9266 102.278 33.0132 102.497 33.1449C102.719 33.2766 102.904 33.4754 103.05 33.7413C103.196 34.0072 103.269 34.3633 103.269 34.8096V38.5122H102.406V37.7512H102.362C102.304 37.8732 102.206 38.0037 102.069 38.1427C101.933 38.2817 101.751 38.4 101.524 38.4976C101.297 38.5951 101.021 38.6439 100.694 38.6439ZM100.825 37.8683C101.167 37.8683 101.455 37.8012 101.689 37.6671C101.925 37.5329 102.104 37.3597 102.223 37.1475C102.345 36.9353 102.406 36.7121 102.406 36.478V35.6877C102.369 35.7316 102.289 35.7719 102.165 35.8084C102.043 35.8426 101.901 35.8731 101.74 35.8999C101.582 35.9243 101.427 35.9463 101.275 35.9658C101.127 35.9828 101.006 35.9975 100.913 36.0097C100.689 36.0389 100.479 36.0865 100.284 36.1524C100.091 36.2158 99.9352 36.3121 99.8157 36.4414C99.6986 36.5682 99.64 36.7414 99.64 36.9609C99.64 37.2609 99.751 37.4878 99.973 37.6414C100.197 37.7927 100.482 37.8683 100.825 37.8683ZM105.65 36.4633L105.636 35.395H105.811L108.27 32.8925H109.338L106.719 35.5414H106.645L105.65 36.4633ZM104.845 38.5122V31.0192H105.709V38.5122H104.845ZM108.416 38.5122L106.221 35.7316L106.836 35.1316L109.514 38.5122H108.416ZM111.255 36.4633L111.24 35.395H111.416L113.874 32.8925H114.942L112.323 35.5414H112.25L111.255 36.4633ZM110.45 38.5122V31.0192H111.313V38.5122H110.45ZM114.02 38.5122L111.825 35.7316L112.44 35.1316L115.118 38.5122H114.02ZM117.708 38.6439C117.351 38.6439 117.028 38.5768 116.738 38.4427C116.448 38.3061 116.217 38.1098 116.046 37.8536C115.876 37.5951 115.79 37.2829 115.79 36.917C115.79 36.5951 115.854 36.3341 115.981 36.1341C116.107 35.9316 116.277 35.7731 116.489 35.6584C116.701 35.5438 116.936 35.4584 117.192 35.4023C117.45 35.3438 117.71 35.2974 117.971 35.2633C118.312 35.2194 118.589 35.1865 118.801 35.1645C119.016 35.1401 119.172 35.0999 119.27 35.0438C119.37 34.9877 119.42 34.8901 119.42 34.7511V34.7218C119.42 34.3608 119.321 34.0803 119.123 33.8803C118.928 33.6803 118.632 33.5803 118.234 33.5803C117.822 33.5803 117.499 33.6706 117.265 33.851C117.031 34.0315 116.866 34.2242 116.771 34.4291L115.951 34.1364C116.098 33.7949 116.293 33.5291 116.537 33.3388C116.783 33.1461 117.051 33.012 117.342 32.9364C117.634 32.8583 117.922 32.8193 118.205 32.8193C118.386 32.8193 118.593 32.8413 118.827 32.8852C119.064 32.9266 119.292 33.0132 119.511 33.1449C119.733 33.2766 119.917 33.4754 120.064 33.7413C120.21 34.0072 120.283 34.3633 120.283 34.8096V38.5122H119.42V37.7512H119.376C119.317 37.8732 119.22 38.0037 119.083 38.1427C118.947 38.2817 118.765 38.4 118.538 38.4976C118.311 38.5951 118.034 38.6439 117.708 38.6439ZM117.839 37.8683C118.181 37.8683 118.469 37.8012 118.703 37.6671C118.939 37.5329 119.117 37.3597 119.237 37.1475C119.359 36.9353 119.42 36.7121 119.42 36.478V35.6877C119.383 35.7316 119.303 35.7719 119.178 35.8084C119.056 35.8426 118.915 35.8731 118.754 35.8999C118.595 35.9243 118.44 35.9463 118.289 35.9658C118.14 35.9828 118.02 35.9975 117.927 36.0097C117.703 36.0389 117.493 36.0865 117.298 36.1524C117.105 36.2158 116.949 36.3121 116.829 36.4414C116.712 36.5682 116.654 36.7414 116.654 36.9609C116.654 37.2609 116.765 37.4878 116.987 37.6414C117.211 37.7927 117.495 37.8683 117.839 37.8683ZM123.981 38.6293C123.513 38.6293 123.099 38.511 122.741 38.2744C122.382 38.0354 122.102 37.6988 121.899 37.2646C121.697 36.828 121.596 36.3121 121.596 35.717C121.596 35.1267 121.697 34.6145 121.899 34.1803C122.102 33.7462 122.384 33.4108 122.745 33.1742C123.106 32.9376 123.523 32.8193 123.996 32.8193C124.362 32.8193 124.651 32.8803 124.863 33.0022C125.078 33.1218 125.241 33.2583 125.353 33.412C125.468 33.5632 125.557 33.6876 125.62 33.7852H125.694V31.0192H126.557V38.5122H125.723V37.6488H125.62C125.557 37.7512 125.467 37.8805 125.35 38.0366C125.233 38.1902 125.065 38.3281 124.848 38.45C124.631 38.5695 124.342 38.6293 123.981 38.6293ZM124.098 37.8536C124.445 37.8536 124.737 37.7634 124.976 37.5829C125.215 37.4 125.397 37.1475 125.522 36.8256C125.646 36.5012 125.708 36.1267 125.708 35.7023C125.708 35.2828 125.647 34.9157 125.525 34.6011C125.403 34.284 125.223 34.0376 124.984 33.862C124.745 33.684 124.45 33.5949 124.098 33.5949C123.732 33.5949 123.428 33.6888 123.184 33.8767C122.942 34.062 122.76 34.3145 122.639 34.634C122.519 34.9511 122.459 35.3072 122.459 35.7023C122.459 36.1024 122.52 36.4658 122.642 36.7926C122.767 37.117 122.949 37.3756 123.191 37.5683C123.435 37.7585 123.737 37.8536 124.098 37.8536Z" fill="#F6FAF7"/>
</svg>
